<?xml version="1.0" standalone="no"?><!DOCTYPE svg PUBLIC "-//W3C//DTD SVG 1.1//EN" "http://www.w3.org/Graphics/SVG/1.1/DTD/svg11.dtd"><svg t="1605164100395" class="icon" viewBox="0 0 1024 1024" version="1.1" xmlns="http://www.w3.org/2000/svg" p-id="12538" width="24" height="24" xmlns:xlink="http://www.w3.org/1999/xlink"><defs><style type="text/css"></style></defs><path d="M875.4 536.5h-286c-29.5 0-53.5 23.9-53.5 53.5v286c0 29.5 23.9 53.5 53.5 53.5h286c29.5 0 53.5-23.9 53.5-53.5V590c0-29.5-24-53.5-53.5-53.5zM434.7 536.5h-286c-29.5 0-53.5 23.9-53.5 53.5v286c0 29.5 23.9 53.5 53.5 53.5h286c29.5 0 53.5-23.9 53.5-53.5V590c-0.1-29.5-24-53.5-53.5-53.5zM434.7 96.1h-286c-29.5 0-53.5 23.9-53.5 53.5v286c0 29.5 23.9 53.5 53.5 53.5h286c29.5 0 53.5-23.9 53.5-53.5v-286c-0.1-29.5-24-53.5-53.5-53.5zM701.3 478.7c16.2 16.2 42.4 16.2 58.6 0L916.7 322c16.2-16.2 16.2-42.4 0-58.6L760 106.6c-16.2-16.2-42.4-16.2-58.6 0L544.6 263.3c-16.2 16.2-16.2 42.4 0 58.6l156.7 156.8z" fill="#f4ea2a" p-id="12539"></path></svg>