<?xml version="1.0" standalone="no"?><!DOCTYPE svg PUBLIC "-//W3C//DTD SVG 1.1//EN" "http://www.w3.org/Graphics/SVG/1.1/DTD/svg11.dtd"><svg t="1605164075695" class="icon" viewBox="0 0 1024 1024" version="1.1" xmlns="http://www.w3.org/2000/svg" p-id="11031" width="24" height="24" xmlns:xlink="http://www.w3.org/1999/xlink"><defs><style type="text/css"></style></defs><path d="M346.7776 470.74304H123.97568C55.5008 470.74304 0 415.24224 0 346.7776V123.97568C0 55.5008 55.5008 0 123.97568 0h222.80192C415.232 0 470.7328 55.5008 470.7328 123.97568v222.80192c0 68.46464-55.5008 123.96544-123.96544 123.96544z" fill="#f4ea2a" p-id="11032"></path><path d="M346.7776 1023.42656H123.97568C55.5008 1023.42656 0 967.92576 0 899.46112V676.72064C0 608.256 55.5008 552.7552 123.97568 552.7552h222.80192c68.46464 0 123.96544 55.5008 123.96544 123.96544v222.74048c0 68.46464-55.5008 123.96544-123.96544 123.96544z" fill="#f4ea2a" p-id="11033"></path><path d="M900.02432 470.74304H677.5808c-68.46464 0-123.97568-55.5008-123.97568-123.96544V123.97568C553.59488 55.5008 609.09568 0 677.5808 0h222.45376C968.4992 0 1024 55.5008 1024 123.97568v222.80192c0 68.46464-55.5008 123.96544-123.97568 123.96544z" fill="#f4ea2a" p-id="11034"></path><path d="M982.67136 642.28352H594.92352a41.32864 41.32864 0 1 1 0-82.6368h387.74784a41.32864 41.32864 0 0 1 0 82.6368zM982.67136 832.86016H594.92352a41.32864 41.32864 0 0 1 0-82.64704h387.74784a41.32864 41.32864 0 0 1 0 82.6368zM982.67136 1023.42656H594.92352a41.32864 41.32864 0 0 1 0-82.64704h387.74784a41.32864 41.32864 0 0 1 0 82.64704z" fill="#f4ea2a" p-id="11035"></path><path d="M346.7776 470.74304H123.97568C55.5008 470.74304 0 415.24224 0 346.7776V123.97568C0 55.5008 55.5008 0 123.97568 0h222.80192C415.232 0 470.7328 55.5008 470.7328 123.97568v222.80192c0 68.46464-55.5008 123.96544-123.96544 123.96544z" fill="#f4ea2a" p-id="11036"></path><path d="M346.7776 1023.42656H123.97568C55.5008 1023.42656 0 967.92576 0 899.46112V676.72064C0 608.256 55.5008 552.7552 123.97568 552.7552h222.80192c68.46464 0 123.96544 55.5008 123.96544 123.96544v222.74048c0 68.46464-55.5008 123.96544-123.96544 123.96544zM900.02432 470.74304H677.5808c-68.46464 0-123.97568-55.5008-123.97568-123.96544V123.97568C553.59488 55.5008 609.09568 0 677.5808 0h222.45376C968.4992 0 1024 55.5008 1024 123.97568v222.80192c0 68.46464-55.5008 123.96544-123.97568 123.96544z" fill="#f4ea2a" p-id="11037"></path><path d="M982.67136 642.28352H594.92352a41.32864 41.32864 0 1 1 0-82.6368h387.74784a41.32864 41.32864 0 0 1 0 82.6368zM982.67136 832.86016H594.92352a41.32864 41.32864 0 0 1 0-82.64704h387.74784a41.32864 41.32864 0 0 1 0 82.6368zM982.67136 1023.42656H594.92352a41.32864 41.32864 0 0 1 0-82.64704h387.74784a41.32864 41.32864 0 0 1 0 82.64704z" fill="#f4ea2a" p-id="11038"></path></svg>