<?xml version="1.0" standalone="no"?><!DOCTYPE svg PUBLIC "-//W3C//DTD SVG 1.1//EN" "http://www.w3.org/Graphics/SVG/1.1/DTD/svg11.dtd"><svg t="1605164056774" class="icon" viewBox="0 0 1175 1024" version="1.1" xmlns="http://www.w3.org/2000/svg" p-id="10210" width="27.5390625" height="24" xmlns:xlink="http://www.w3.org/1999/xlink"><defs><style type="text/css"></style></defs><path d="M720.592593 0a303.407407 303.407407 0 0 1 161.336888 560.393481C1053.620148 625.512296 1175.703704 791.514074 1175.703704 986.074074a37.925926 37.925926 0 1 1-75.851852 0c0-209.464889-169.79437-379.259259-379.259259-379.259259S341.333333 776.609185 341.333333 986.074074a37.925926 37.925926 0 1 1-75.851852 0c0-194.56 122.083556-360.561778 293.774223-425.680593A303.407407 303.407407 0 0 1 720.592593 0z m0 75.851852a227.555556 227.555556 0 1 0 0 455.111111 227.555556 227.555556 0 0 0 0-455.111111z" fill="#1E83FD" p-id="10211"></path><path d="M379.259259 75.851852a37.925926 37.925926 0 0 1 0 75.851852 166.874074 166.874074 0 1 0 0 333.748148 37.925926 37.925926 0 0 1 0 75.851852c-4.058074 0-8.078222-0.113778-12.09837-0.303408l-0.530963 0.037926-4.437333 0.265482A286.340741 286.340741 0 0 0 75.851852 847.644444a37.925926 37.925926 0 0 1-75.851852 0 362.30637 362.30637 0 0 1 230.324148-337.426963A242.725926 242.725926 0 0 1 379.259259 75.851852z" fill="#1E83FD" p-id="10212"></path></svg>